<?xml version="1.0" encoding="UTF-8"?>
<svg height="140.318pt" xmlns:inkscape="http://www.inkscape.org/namespaces/inkscape" width="121.89pt" xmlns="http://www.w3.org/2000/svg" viewBox="0 0 121.89 140.318" xmlns:xlink="http://www.w3.org/1999/xlink" version="1.1">
 <defs>
  <path id="GlMyriadPro-Cond42" d="M0.6 3.26 L0.6 10 L1.37 10 L1.37 3.26 L0.6 3.26 Z"/>
  <path id="GlMyriadPro-Cond47" d="M1.3 10 L1.3 7.67 C1.3 6.23 1.28 5.37 1.22 4.47 L1.24 4.47 C1.48 5.31 1.77 6.08 2.05 6.76 L3.33 10 L4.05 10 L4.05 3.26 L3.36 3.26 L3.36 5.67 C3.36 6.84 3.39 7.71 3.45 8.77 L3.43 8.77 C3.2 8.04 2.85 7.15 2.57 6.42 L1.33 3.26 L0.61 3.26 L0.61 10 L1.3 10 Z"/>
  <path id="GlMyriadPro-Cond52" d="M0.28 9.76 C0.47 9.91 0.96 10.06 1.42 10.06 C2.49 10.06 3.31 9.33 3.31 8.17 C3.31 7.42 2.95 6.8 2.14 6.23 C1.5 5.78 1.15 5.51 1.15 4.84 C1.15 4.38 1.46 3.88 2.12 3.88 C2.47 3.88 2.75 3.99 2.92 4.11 L3.11 3.45 C2.95 3.34 2.58 3.2 2.16 3.2 C1.1 3.2 0.38 3.95 0.38 4.97 C0.38 5.84 1.12 6.47 1.65 6.84 C2.18 7.24 2.54 7.62 2.54 8.24 C2.54 8.92 2.12 9.38 1.42 9.38 C1.08 9.38 0.68 9.25 0.45 9.11 L0.28 9.76 Z"/>
  <path id="GlMyriadPro-Cond53" d="M1.39 10 L2.16 10 L2.16 3.95 L3.39 3.95 L3.39 3.26 L0.16 3.26 L0.16 3.95 L1.39 3.95 L1.39 10 Z"/>
  <path id="GlMyriadPro-Cond58" d="M2.35 10 L2.35 7.12 L3.89 3.26 L3.09 3.26 L2.52 4.92 C2.34 5.44 2.16 5.95 2.03 6.47 L2.01 6.47 C1.86 5.95 1.67 5.42 1.51 4.95 L0.91 3.26 L0.09 3.26 L1.58 7.15 L1.58 10 L2.35 10 Z"/>
  <path id="GlMyriadPro-Cond54" d="M0.59 3.26 L0.59 7.75 C0.59 9.42 1.25 10.08 2.26 10.08 C3.26 10.08 3.98 9.41 3.98 7.66 L3.98 3.26 L3.21 3.26 L3.21 7.78 C3.21 8.96 2.84 9.4 2.27 9.4 C1.77 9.4 1.36 8.99 1.36 7.78 L1.36 3.26 L0.59 3.26 Z"/>
  <path id="GlMyriadPro-Cond51" d="M0.6 10 L1.37 10 L1.37 7.07 L1.67 7.07 C2.33 7.07 2.62 7.41 2.77 8.34 C2.9 9.16 3.03 9.8 3.13 10 L3.91 10 C3.81 9.79 3.68 9.22 3.52 8.3 C3.38 7.42 3.12 6.94 2.62 6.79 L2.62 6.77 C3.3 6.45 3.7 5.89 3.7 5.03 C3.7 4.5 3.56 4.05 3.23 3.71 C2.88 3.37 2.38 3.23 1.71 3.23 C1.33 3.23 0.93 3.27 0.6 3.36 L0.6 10 L0.6 10 Z M1.37 3.89 C1.47 3.86 1.62 3.85 1.77 3.85 C2.6 3.86 2.92 4.35 2.92 5.12 C2.92 5.93 2.43 6.47 1.69 6.47 L1.37 6.47 L1.37 3.89 Z"/>
  <path id="GlMyriadPro-Cond48" d="M2.2 10.08 C3.28 10.08 4.14 9.1 4.14 6.58 C4.14 4.43 3.45 3.18 2.3 3.18 C1.13 3.18 0.32 4.39 0.32 6.62 C0.32 8.89 1.07 10.08 2.19 10.08 L2.2 10.08 L2.2 10.08 Z M2.24 9.4 C1.37 9.4 1.11 7.93 1.12 6.62 C1.12 5.34 1.37 3.86 2.24 3.86 C3.11 3.86 3.34 5.35 3.34 6.61 C3.34 7.93 3.11 9.4 2.25 9.4 L2.24 9.4 Z"/>
  <path id="GlMyriadPro-Cond46" d="M4.82 10 L5.54 10 L5.15 3.26 L4.29 3.26 L3.53 6.34 C3.31 7.25 3.16 7.89 3.03 8.66 L3 8.66 C2.86 7.89 2.69 7.23 2.46 6.34 L1.68 3.26 L0.84 3.26 L0.44 10 L1.13 10 L1.26 7.15 C1.3 6.19 1.35 5.25 1.34 4.46 L1.37 4.46 C1.51 5.24 1.7 6.07 1.93 6.93 L2.71 9.96 L3.21 9.96 L4.03 6.8 C4.24 6.02 4.42 5.21 4.57 4.46 L4.61 4.46 C4.58 5.22 4.63 6.21 4.68 7.1 L4.82 10 Z"/>
  <path id="GlMyriadPro-Cond34" d="M2.91 7.98 L3.35 10 L4.11 10 L2.61 3.26 L1.76 3.26 L0.22 10 L0.97 10 L1.41 7.98 L2.91 7.98 L2.91 7.98 Z M1.52 7.36 L1.87 5.66 C1.97 5.2 2.07 4.62 2.15 4.11 L2.18 4.11 C2.26 4.61 2.35 5.17 2.45 5.65 L2.8 7.36 L1.52 7.36 Z"/>
  <path id="GlMyriadPro-Cond44" d="M0.6 10 L1.37 10 L1.37 7.4 L1.75 6.75 L3.13 10 L3.96 10 L2.27 6.14 L3.92 3.26 L3.06 3.26 L1.81 5.65 C1.68 5.91 1.54 6.18 1.39 6.46 L1.37 6.46 L1.37 3.26 L0.6 3.26 L0.6 10 Z"/>
  <clipPath id="Clip0">
   <path d="M0 0 L119.782 0 L119.782 124.059 L0 124.059 L0 0 Z"/>
  </clipPath>
 </defs>
 <g inkscape:label="Tło" inkscape:groupmode="layer" id="Tło">
  <g transform="translate(0, 95.5)">
   <use style="fill:#6b6c6d;stroke:none;" transform="matrix(2.8 0 0 2.8 18.975 -8.95)" xlink:href="#GlMyriadPro-Cond42"/>
   <use style="fill:#6b6c6d;stroke:none;" transform="matrix(2.8 0 0 2.8 24.575 -8.95)" xlink:href="#GlMyriadPro-Cond47"/>
   <use style="fill:#6b6c6d;stroke:none;" transform="matrix(2.8 0 0 2.8 37.575 -8.95)" xlink:href="#GlMyriadPro-Cond52"/>
   <use style="fill:#6b6c6d;stroke:none;" transform="matrix(2.8 0 0 2.8 47.675 -8.95)" xlink:href="#GlMyriadPro-Cond53"/>
   <use style="fill:#6b6c6d;stroke:none;" transform="matrix(2.8 0 0 2.8 58.175 -8.95)" xlink:href="#GlMyriadPro-Cond58"/>
   <use style="fill:#6b6c6d;stroke:none;" transform="matrix(2.8 0 0 2.8 69.675 -8.95)" xlink:href="#GlMyriadPro-Cond53"/>
   <use style="fill:#6b6c6d;stroke:none;" transform="matrix(2.8 0 0 2.8 79.575 -8.95)" xlink:href="#GlMyriadPro-Cond54"/>
   <use style="fill:#6b6c6d;stroke:none;" transform="matrix(2.8 0 0 2.8 92.375 -8.95)" xlink:href="#GlMyriadPro-Cond53"/>
   <use style="fill:#6b6c6d;stroke:none;" transform="matrix(2.8 0 0 2.8 0.675 15.05)" xlink:href="#GlMyriadPro-Cond51"/>
   <use style="fill:#6b6c6d;stroke:none;" transform="matrix(2.8 0 0 2.8 12.175 15.05)" xlink:href="#GlMyriadPro-Cond48"/>
   <use style="fill:#6b6c6d;stroke:none;" transform="matrix(2.8 0 0 2.8 24.675 15.05)" xlink:href="#GlMyriadPro-Cond46"/>
   <use style="fill:#6b6c6d;stroke:none;" transform="matrix(2.8 0 0 2.8 41.275 15.05)" xlink:href="#GlMyriadPro-Cond34"/>
   <use style="fill:#6b6c6d;stroke:none;" transform="matrix(2.8 0 0 2.8 53.475 15.05)" xlink:href="#GlMyriadPro-Cond47"/>
   <use style="fill:#6b6c6d;stroke:none;" transform="matrix(2.8 0 0 2.8 66.475 15.05)" xlink:href="#GlMyriadPro-Cond42"/>
   <use style="fill:#6b6c6d;stroke:none;" transform="matrix(2.8 0 0 2.8 72.075 15.05)" xlink:href="#GlMyriadPro-Cond52"/>
   <use style="fill:#6b6c6d;stroke:none;" transform="matrix(2.8 0 0 2.8 82.175 15.05)" xlink:href="#GlMyriadPro-Cond53"/>
   <use style="fill:#6b6c6d;stroke:none;" transform="matrix(2.8 0 0 2.8 92.675 15.05)" xlink:href="#GlMyriadPro-Cond58"/>
   <use style="fill:#6b6c6d;stroke:none;" transform="matrix(2.8 0 0 2.8 103.675 15.05)" xlink:href="#GlMyriadPro-Cond44"/>
   <use style="fill:#6b6c6d;stroke:none;" transform="matrix(2.8 0 0 2.8 114.975 15.05)" xlink:href="#GlMyriadPro-Cond42"/>
   <path style="fill:none; stroke:none;" d="M0 0 L121.89 0 L121.89 50.6524 L0 50.6524 L0 0 Z"/>
  </g>
  <g clip-path="url(#Clip0)" style="fill:none; stroke:none" transform="translate(21, 0) scale(0.679418, 0.693157)" id="Grupa5" clip-rule="evenodd">
   <path style="fill:#002c7d; fill-rule:evenodd;stroke:none;" transform="translate(0, 113.433)" d="M0.375477 0.212474 L0.375477 0.141157 C-0.125159 -0.073982 -0.125159 -0.0376927 0.375477 0.212474 "/>
   <path style="fill:#bc270d; fill-rule:evenodd;stroke:none;" transform="translate(112.017, 0)" d="M7.76473 106.417 L7.76473 0 L0 0 L0 106.132 C2.43339 106.095 5.04488 106.167 7.76473 106.417 "/>
   <path style="fill:#bc270d; fill-rule:evenodd;stroke:none;" transform="translate(101.39, 11.2)" d="M6.51204 0 L0 0 L0 96.0769 C2.07495 95.6828 4.22188 95.3608 6.51204 95.1463 L6.51204 0 "/>
   <path style="fill:#bc270d; fill-rule:evenodd;stroke:none;" transform="translate(91.8719, 22.1142)" d="M5.51019 0 L0 0 L0 87.8825 C1.78849 87.2383 3.57773 86.6291 5.51019 86.1274 L5.51019 0 "/>
   <path style="fill:#bc270d; fill-rule:evenodd;stroke:none;" transform="translate(84.5717, 31.9539)" d="M3.29201 0 L0 0 L0 81.1189 C1.07384 80.6187 2.14693 80.117 3.29201 79.6525 L3.29201 0 "/>
   <path style="fill:#002c7d; fill-rule:evenodd;stroke:none;" transform="translate(2.52239, 0)" d="M7.9438 0 L0 0 L0 114.576 C1.86079 115.399 4.58051 116.472 7.9438 117.654 L7.9438 0 "/>
   <path style="fill:#002c7d; fill-rule:evenodd;stroke:none;" transform="translate(14.3663, 11.1643)" d="M6.7631 0 L0 0 L0 107.813 C2.11124 108.493 4.366 109.137 6.7631 109.746 L6.7631 0 "/>
   <path style="fill:#002c7d; fill-rule:evenodd;stroke:none;" transform="translate(25.0298, 22.1142)" d="M5.47486 0 L0 0 L0 99.7615 C1.78923 100.155 3.61379 100.549 5.47486 100.871 L5.47486 0 "/>
   <path style="fill:#002c7d; fill-rule:evenodd;stroke:none;" transform="translate(34.5834, 31.9539)" d="M3.36385 0 L0 0 L0 91.6754 C1.10909 91.8543 2.25417 91.9975 3.36385 92.1051 L3.36385 0 "/>
   <path style="fill:#002c7d; fill-rule:evenodd;stroke:none;" transform="translate(2.52239, 0)" d="M109.495 7.87233 L7.9438 7.87233 L0 0 L117.26 0 L109.495 7.87233 "/>
   <path style="fill:#002c7d; fill-rule:evenodd;stroke:none;" transform="translate(14.4017, 11.1643)" d="M86.9882 6.69089 L6.72777 6.69089 L0 0 L93.5003 0 L86.9882 6.69089 "/>
   <path style="fill:#002c7d; fill-rule:evenodd;stroke:none;" transform="translate(25.0298, 22.1142)" d="M66.842 5.47457 L5.47486 5.47457 L0 0 L72.3522 0 L66.842 5.47457 "/>
   <path style="fill:#002c7d; fill-rule:evenodd;stroke:none;" transform="translate(34.5834, 31.9539)" d="M49.9883 3.29201 L3.36385 3.29201 L0 0 L53.2803 0 L49.9883 3.29201 "/>
  </g>
 </g>
</svg>
